PathFileType	4	(X/Y/Z)	./resultDataOpenSim/trcMotMarkerGrf/sub06/qtm-13-03.trc
DataRate	CameraRate	NumFrames	NumMarkers	Units	OrigDataRate	OrigDataStartFrame	OrigNumFrames
250.000000	250.000000	11	24	m	250.000000	479	547
Frame#	Time	L.Toe.Tip			R.Toe.Tip			L.Ankle.Lat			R.Ankle.Lat			L.Ankle.Med			R.Ankle.Med			L.Heel			R.Heel			L.Knee.Lat			R.Knee.Lat			L.Knee.Med			R.Knee.Med			L.Thigh.Upper			R.Thigh.Upper			L.ASIS			R.ASIS			V.Sacral			L.Acromium			R.Acromium			C7			L.Elbow			R.Elbow			L.Wrist.Lat			R.Wrist.Lat
		X1	Y1	Z1	X2	Y2	Z2	X3	Y3	Z3	X4	Y4	Z4	X5	Y5	Z5	X6	Y6	Z6	X7	Y7	Z7	X8	Y8	Z8	X9	Y9	Z9	X10	Y10	Z10	X11	Y11	Z11	X12	Y12	Z12	X13	Y13	Z13	X14	Y14	Z14	X15	Y15	Z15	X16	Y16	Z16	X17	Y17	Z17	X18	Y18	Z18	X19	Y19	Z19	X20	Y20	Z20	X21	Y21	Z21	X22	Y22	Z22	X23	Y23	Z23	X24	Y24	Z24

479	1.912	1.7031179	0.034653541	-0.10049079	1.6337271	0.066932827	0.11733361	1.5755886	0.068668818	-0.12214947	1.5293856	0.15748714	0.11406216	1.5746157	0.082680386	-0.035821379	1.5720285	0.16061936	0.033228235	1.5028008	0.040653033	-0.076900401	1.4831186	0.15473448	0.043974141	1.6293213	0.44020343	-0.13664125	1.7349897	0.48448272	0.13453168	1.5964771	0.44236336	-0.016478601	1.7291104	0.46998085	0.0047547175	1.5776466	0.83116856	-0.2048591	1.5732681	0.81850849	0.1423619	1.6442013	0.88319186	-0.15881467	1.6458841	0.88598556	0.085140897	1.4558618	0.94447287	-0.027073509	1.5734134	1.3581885	-0.22603215	1.5640485	1.3503348	0.13545452	1.4891152	1.3888311	-0.049201289	1.5335193	1.0352254	-0.27795117	1.4937418	1.0393721	0.19538507	1.7303361	0.87597847	-0.30019954	1.6317717	0.84062245	0.22223892
480	1.916	1.7031402	0.034646509	-0.10053576	1.6514021	0.066281161	0.1174778	1.5755876	0.068743805	-0.12208418	1.5445444	0.15370648	0.11427654	1.5747894	0.082761805	-0.035750125	1.5867695	0.15797949	0.03311441	1.5028282	0.040754976	-0.076729284	1.4975864	0.14974164	0.044610385	1.6298591	0.44006144	-0.13668759	1.742171	0.48641353	0.13376301	1.5976212	0.44238374	-0.016299122	1.7352506	0.47205473	0.0046968025	1.5818461	0.83134549	-0.2047015	1.5786428	0.81997061	0.14260123	1.6484175	0.8834919	-0.15895123	1.6508622	0.88713449	0.084682318	1.4605953	0.9450593	-0.026857745	1.5785161	1.3590728	-0.22612452	1.5688898	1.3507206	0.13531035	1.4939351	1.3893042	-0.049392895	1.5405175	1.0356363	-0.27881308	1.4959021	1.0405122	0.19507441	1.740941	0.88005305	-0.29887084	1.6312111	0.84016532	0.22463934
481	1.92	1.7031628	0.034637911	-0.10057249	1.6691214	0.065725467	0.11759068	1.5755929	0.068816927	-0.12200528	1.5598721	0.14990613	0.11449127	1.5749371	0.082836782	-0.035651731	1.6019263	0.15499076	0.033218856	1.5028638	0.040841968	-0.076530829	1.5113692	0.1450785	0.045435326	1.6304346	0.43991239	-0.1367253	1.7491895	0.48821602	0.13301739	1.5988048	0.44237133	-0.016110329	1.7412296	0.47394702	0.0046619459	1.5859032	0.83145269	-0.20458805	1.5841799	0.8212951	0.14289608	1.6526099	0.88368488	-0.15907041	1.6558146	0.88815023	0.08425357	1.4653154	0.94554053	-0.026709467	1.5835696	1.3598102	-0.22619402	1.5737242	1.3510265	0.13520438	1.4987525	1.3897152	-0.049563007	1.5475166	1.035969	-0.27968544	1.4982624	1.0415381	0.19481194	1.7514316	0.88413509	-0.29751458	1.6304305	0.83970072	0.22701028
482	1.924	1.7031818	0.034627973	-0.10059794	1.6868916	0.065275844	0.1176678	1.5756021	0.068887423	-0.12191245	1.5753479	0.14610371	0.11470275	1.5750753	0.082907266	-0.035539723	1.6174892	0.15178528	0.033430183	1.502901	0.040924606	-0.076318179	1.5257335	0.14018894	0.046130454	1.6310512	0.4397521	-0.13674255	1.7560425	0.48989002	0.13229588	1.6000282	0.44232728	-0.015921714	1.7470661	0.47563849	0.0046251248	1.5898898	0.83148649	-0.20449369	1.5898411	0.8224783	0.14323309	1.6567852	0.883768	-0.15917503	1.660737	0.88903075	0.083859081	1.4700453	0.94594094	-0.026606394	1.5885748	1.3604134	-0.22625053	1.5785393	1.3512563	0.13513901	1.5035683	1.3900824	-0.049712163	1.5545193	1.0362082	-0.28055758	1.5009432	1.0424735	0.19459658	1.7617843	0.88822233	-0.2961351	1.6296145	0.83926268	0.22935169
483	1.928	1.7031971	0.034616222	-0.10061224	1.7047149	0.064950202	0.11770804	1.5756147	0.068954701	-0.12180593	1.5909432	0.1423234	0.1149048	1.5752209	0.082970295	-0.03543028	1.633206	0.14866949	0.033588099	1.5029367	0.041011348	-0.076110372	1.5412413	0.1348837	0.046562334	1.6317166	0.43957718	-0.13673269	1.7627322	0.49143169	0.13160203	1.601293	0.44225442	-0.015738729	1.7528049	0.47708944	0.0045582162	1.5938463	0.831458	-0.20440836	1.5953116	0.82350263	0.14353694	1.6609581	0.88373897	-0.15926851	1.6656314	0.88977327	0.083502198	1.4748303	0.94627613	-0.026541799	1.5935501	1.3609063	-0.22631265	1.5833303	1.3514083	0.1351067	1.5083815	1.3903996	-0.049848723	1.5615446	1.0363441	-0.28144399	1.5037505	1.0433614	0.19442517	1.7719919	0.89231054	-0.29473546	1.6291613	0.83888155	0.23163436
484	1.932	1.7032115	0.034601764	-0.10061828	1.7225854	0.064769067	0.11771263	1.5756318	0.069016843	-0.12168578	1.6066483	0.13858408	0.11509282	1.5753671	0.083019392	-0.035329058	1.6488681	0.14579239	0.033664935	1.5029703	0.041103107	-0.075920205	1.5576802	0.12933064	0.046737484	1.6324422	0.43938855	-0.13669963	1.7692567	0.49283088	0.13094036	1.6025952	0.44215671	-0.0155659	1.7584966	0.4782597	0.0044368801	1.5977821	0.83138247	-0.20433104	1.6003233	0.82436034	0.14374063	1.6651401	0.8835988	-0.15935323	1.6705124	0.89037458	0.083181883	1.4797202	0.94653093	-0.02652211	1.5985238	1.3613057	-0.22639501	1.5881075	1.3514804	0.13509573	1.513193	1.3906474	-0.049980601	1.5686062	1.0363792	-0.28235754	1.5064264	1.0442289	0.19428991	1.7820655	0.89639018	-0.2933148	1.6290878	0.83852287	0.23384299
485	1.936	1.7032272	0.034583414	-0.10062031	1.7404912	0.064748885	0.1176866	1.5756549	0.069070347	-0.12154912	1.6224801	0.13489582	0.11526888	1.5754953	0.083048691	-0.035231279	1.6644011	0.14312725	0.033714775	1.5030026	0.041194437	-0.075746921	1.574549	0.12378303	0.046730306	1.6332347	0.43918551	-0.13665765	1.7756102	0.49407485	0.13031222	1.6038974	0.44203828	-0.01540281	1.7641393	0.47914788	0.004267531	1.6017024	0.83127171	-0.20424686	1.6050279	0.82506271	0.14387558	1.6693383	0.88335578	-0.15943273	1.675399	0.89083417	0.082894606	1.4847412	0.94667689	-0.026544274	1.6035183	1.3616212	-0.22650117	1.5928816	1.3514749	0.13510198	1.5180097	1.3908216	-0.050099417	1.5756883	1.0363277	-0.28326912	1.5089494	1.0450647	0.19419022	1.7920241	0.90044782	-0.29187191	1.6290002	0.83813497	0.2359961
486	1.94	1.7032459	0.034560469	-0.10062147	1.7584189	0.06489988	0.11763569	1.5756841	0.06911159	-0.1213923	1.6384583	0.13126607	0.11543578	1.5755945	0.083055324	-0.035129501	1.6798737	0.14059861	0.03376134	1.5030352	0.041279296	-0.075582001	1.5913812	0.1184138	0.046693267	1.6340828	0.43896039	-0.13662287	1.781793	0.4951571	0.12971359	1.6051528	0.44190346	-0.015238042	1.769671	0.47979594	0.0040879535	1.6056275	0.83113633	-0.20410965	1.6097752	0.82562058	0.14402175	1.673557	0.88302667	-0.15951411	1.6802986	0.89115479	0.082639097	1.4898486	0.9467101	-0.026569238	1.6085274	1.3618518	-0.22661699	1.5976513	1.3513962	0.1351314	1.5228356	1.3909303	-0.050189225	1.5827698	1.0362007	-0.28413983	1.5114614	1.0458408	0.19413431	1.8018832	0.90447354	-0.29040957	1.6286637	0.83772037	0.23811509
487	1.944	1.7032677	0.034532778	-0.10062189	1.7763564	0.06522861	0.11756048	1.5757198	0.069139989	-0.12122113	1.6545888	0.12770134	0.11558996	1.5756651	0.083040346	-0.035018094	1.695459	0.13816007	0.033761042	1.5030684	0.041355096	-0.075418075	1.6079703	0.11327675	0.046768397	1.6349641	0.43870418	-0.13660202	1.7878159	0.49608018	0.12913781	1.6063739	0.4417552	-0.015065725	1.7750396	0.48024256	0.0039264361	1.6095847	0.83097292	-0.20385325	1.614699	0.82603284	0.14420587	1.6777963	0.88262972	-0.15960522	1.6852106	0.89133949	0.082417572	1.4949173	0.94666289	-0.026533891	1.6135165	1.3619884	-0.22671585	1.6024122	1.3512468	0.13519235	1.5276647	1.3909739	-0.05024639	1.5898581	1.0359949	-0.28497519	1.5140432	1.0465436	0.19413125	1.8116523	0.90846407	-0.28893287	1.6281836	0.8373184	0.24020051
488	1.948	1.7032903	0.03450077	-0.10061957	1.7942846	0.065740781	0.11745715	1.5757632	0.069159056	-0.12105412	1.6708607	0.12420576	0.11572267	1.5757165	0.083008286	-0.034894344	1.7113373	0.13582397	0.033625898	1.5031002	0.041423241	-0.075251382	1.6243663	0.10837473	0.04696223	1.6358699	0.43841446	-0.1365888	1.7936888	0.49684648	0.12858057	1.6076236	0.44159421	-0.014895548	1.7802482	0.48049496	0.0037728303	1.6135729	0.83072725	-0.20346241	1.6197154	0.8263035	0.14439891	1.6820472	0.88217842	-0.15971018	1.6901327	0.89139086	0.082231954	1.4998213	0.94657426	-0.026392026	1.618455	1.3620268	-0.22678171	1.607166	1.3510295	0.13528658	1.5324908	1.3909485	-0.050277728	1.596982	1.0356995	-0.28581999	1.5166802	1.0471782	0.19418894	1.8213391	0.91241972	-0.28744533	1.627738	0.83695314	0.24224121
489	1.952	1.7033105	0.034465632	-0.10061312	1.8121674	0.066439821	0.11732624	1.5758127	0.069173156	-0.12090896	1.6872393	0.12078412	0.11582352	1.5757747	0.082964319	-0.034761233	1.7274929	0.13367798	0.033331763	1.5031268	0.041488868	-0.07508081	1.6407131	0.10373836	0.047119213	1.6368249	0.43809572	-0.13656958	1.7994133	0.49744931	0.12804195	1.608929	0.44142159	-0.01473634	1.7853268	0.48054876	0.0035934516	1.6175323	0.83031172	-0.20306832	1.624728	0.82644975	0.14457149	1.6862952	0.88168065	-0.15982837	1.6950649	0.89131336	0.082080853	1.504529	0.94645624	-0.026137223	1.6233405	1.3619727	-0.22682041	1.6119119	1.3507499	0.13540458	1.5373165	1.3908592	-0.050286224	1.6041604	1.0353135	-0.28670703	1.5193359	1.0477545	0.19430827	1.8309451	0.916339	-0.28594984	1.6274015	0.83661996	0.24422928
